<?xml version="1.0" standalone="no"?>
<!DOCTYPE svg PUBLIC "-//W3C//DTD SVG 20010904//EN"
 "http://www.w3.org/TR/2001/REC-SVG-20010904/DTD/svg10.dtd">
<svg version="1.0" xmlns="http://www.w3.org/2000/svg"
 width="512.000000pt" height="512.000000pt" viewBox="0 0 512.000000 512.000000"
 preserveAspectRatio="xMidYMid meet">

<g transform="translate(0.000000,512.000000) scale(0.100000,-0.100000)"
fill="#ffffff" stroke="none">
<path d="M2420 4634 c-239 -49 -408 -139 -560 -300 -114 -122 -187 -252 -231
-414 -31 -114 -34 -356 -5 -465 47 -174 120 -306 241 -433 138 -145 270 -223
475 -279 102 -27 347 -25 460 5 335 90 600 356 691 692 31 112 33 358 6 460
-56 205 -134 337 -279 476 -127 120 -257 192 -433 240 -60 16 -313 28 -365 18z
m337 -349 c192 -60 340 -209 409 -410 24 -69 28 -96 28 -195 0 -99 -4 -126
-28 -195 -35 -103 -85 -184 -156 -255 -71 -71 -152 -121 -255 -156 -69 -24
-96 -28 -195 -28 -99 0 -126 4 -195 28 -202 70 -341 209 -411 411 -24 69 -28
96 -28 195 0 99 4 126 28 195 46 135 117 234 225 315 70 53 187 104 273 120
82 14 215 4 305 -25z"/>
<path d="M2352 2549 c-45 -5 -133 -20 -195 -33 -740 -161 -1312 -733 -1473
-1474 -13 -62 -27 -152 -30 -200 -6 -80 -4 -90 17 -121 13 -19 37 -44 52 -55
28 -21 32 -21 1021 -24 l993 -2 53 -46 c400 -342 965 -364 1393 -56 500 360
605 1076 232 1574 -286 380 -796 542 -1236 392 l-72 -24 -76 20 c-199 50 -485
71 -679 49z m330 -315 l37 -6 -70 -86 c-155 -192 -249 -454 -249 -697 0 -147
44 -354 96 -457 l15 -28 -760 0 -759 0 14 58 c76 299 214 543 423 752 169 168
331 275 546 361 99 39 281 86 383 98 93 10 273 13 324 5z m958 -5 c224 -36
427 -167 551 -357 88 -135 124 -258 124 -432 0 -225 -76 -411 -230 -565 -154
-154 -340 -230 -565 -230 -174 0 -297 36 -433 125 -314 205 -443 587 -318 942
126 355 499 577 871 517z"/>
<path d="M3890 1753 c-8 -4 -130 -104 -270 -224 l-254 -218 -107 104 c-90 89
-111 105 -138 105 -43 0 -81 -38 -81 -82 0 -28 18 -50 143 -175 124 -124 147
-143 175 -143 27 0 74 36 319 246 159 135 296 257 305 272 25 38 22 59 -11 93
-29 28 -50 34 -81 22z"/>
</g>
</svg>
